<svg viewBox="0 0 320 320" width="320" height="320" fill="none" xmlns="http://www.w3.org/2000/svg">
  <!-- Convergence Crest — Majestic Master -->
  <circle cx="160" cy="160" r="130" stroke="black" stroke-width="2"/>
  <line x1="100" y1="240" x2="100" y2="160" stroke="black" stroke-width="2"/>
  <line x1="220" y1="240" x2="220" y2="160" stroke="black" stroke-width="2"/>
  <path d="M 100 160 Q 160 80 220 160" stroke="black" stroke-width="2" fill="none"/>
  <line x1="120" y1="240" x2="120" y2="170" stroke="black" stroke-width="2"/>
  <line x1="200" y1="240" x2="200" y2="170" stroke="black" stroke-width="2"/>
  <path d="M 120 170 Q 160 105 200 170" stroke="black" stroke-width="2" fill="none"/>
  <line x1="140" y1="240" x2="140" y2="180" stroke="black" stroke-width="2"/>
  <line x1="180" y1="240" x2="180" y2="180" stroke="black" stroke-width="2"/>
  <path d="M 140 180 Q 160 130 180 180" stroke="black" stroke-width="2" fill="none"/>
  <circle cx="100" cy="240" r="4" fill="none" stroke="black" stroke-width="1.5"/>
  <circle cx="220" cy="240" r="4" fill="none" stroke="black" stroke-width="1.5"/>
  <circle cx="120" cy="240" r="3" fill="none" stroke="black" stroke-width="1.5"/>
  <circle cx="200" cy="240" r="3" fill="none" stroke="black" stroke-width="1.5"/>
  <circle cx="160" cy="80" r="4" fill="none" stroke="black" stroke-width="1.5"/>
</svg>