<svg xmlns="http://www.w3.org/2000/svg" width="100%" height="auto" viewBox="0 0 1024 1024" version="1.1">
	<path d="M 487 318.090 C 468.413 320.483, 448.159 326.233, 430.530 334.124 C 369.093 361.621, 325.305 420.466, 316.546 487.301 C 315.696 493.792, 315 501.104, 315 503.551 L 315 508 296.393 508 L 277.787 508 273.143 503.095 C 267.460 497.091, 262.452 495.263, 256.256 496.931 C 241.685 500.855, 238.250 519.466, 250.543 527.889 C 258.062 533.041, 269.438 530.882, 274.044 523.429 L 276.163 520 295.444 520 L 314.725 520 315.412 528.750 C 317.124 550.564, 324.121 575.630, 334.325 596.500 C 344.633 617.584, 353.903 630.764, 370.462 647.872 C 387.001 664.961, 404.622 677.629, 426.213 687.953 C 478.029 712.728, 537.233 714.211, 589.624 692.046 C 641.605 670.054, 680.701 627.889, 699.019 574.063 C 704.122 559.069, 706.626 547.624, 708.168 532.250 L 709.397 520 728.531 520 L 747.665 520 750.965 524.106 C 756.355 530.813, 763.059 532.561, 771.082 529.351 C 777.223 526.893, 781 521.162, 781 514.300 C 781 508.073, 779.343 504.308, 774.990 500.645 C 766.760 493.720, 754.198 495.915, 749.443 505.110 L 747.926 508.043 728.713 507.771 L 709.500 507.500 708.866 498.499 C 703.988 429.279, 661.511 366.868, 598.644 336.551 C 578.068 326.629, 560.804 321.390, 539 318.453 C 527.614 316.920, 497.716 316.711, 487 318.090 M 492 329.697 C 466.434 332.450, 436.647 342.894, 413.612 357.181 C 395.049 368.694, 373.991 388.565, 360.747 407.067 C 347.624 425.399, 334.918 454.668, 330.605 476.500 C 328.975 484.751, 327.023 500.378, 327.008 505.285 C 327.001 507.764, 327.220 507.952, 329.007 506.996 C 330.110 506.406, 336.748 500.428, 343.757 493.711 C 361.112 477.081, 370.678 470.999, 384.250 467.966 L 390 466.682 390 447.795 C 390 429.077, 390.022 428.887, 392.455 426.455 C 395.267 423.643, 396.818 423.416, 399.559 425.417 C 401.335 426.714, 401.543 428.512, 402 446.568 L 402.500 466.301 410.229 468.123 C 425.732 471.778, 439.567 481.557, 451.190 497.075 L 454.617 501.651 461.058 493.603 C 472.124 479.777, 486.415 470.289, 499.969 467.769 L 506 466.647 506 432.073 L 506 397.500 502.506 394.712 C 497.375 390.618, 495.706 386.742, 496.190 380.044 C 496.660 373.559, 498.763 370.123, 504.136 367.068 C 511.915 362.644, 521.468 365.120, 526.726 372.922 C 531.408 379.869, 528.659 391.575, 521.275 396.139 L 517.974 398.179 518.237 432.295 L 518.500 466.410 525 467.698 C 535.250 469.729, 547.033 476.087, 555.562 484.189 C 559.610 488.035, 564.608 493.390, 566.667 496.091 C 568.726 498.791, 570.709 501, 571.073 501 C 571.436 501, 572.862 499.313, 574.241 497.250 C 578.279 491.211, 588.379 481.460, 595.706 476.527 C 602.047 472.259, 615.484 467, 620.052 467 C 621.916 467, 622 466.161, 622 447.500 C 622 429.333, 622.137 427.863, 624 426 C 625.100 424.900, 626.900 424, 628 424 C 629.100 424, 630.900 424.900, 632 426 C 633.862 427.862, 634 429.333, 634 447.271 L 634 466.542 640.079 467.698 C 647.598 469.127, 659.714 474.790, 666.968 480.266 C 669.976 482.537, 677.675 489.481, 684.076 495.697 C 690.478 501.914, 696.063 507, 696.487 507 C 697.777 507, 696.025 489.231, 693.474 476.450 C 678.228 400.049, 614.670 340.637, 537.338 330.500 C 526.997 329.144, 501.350 328.690, 492 329.697 M 508.571 377.571 C 505.266 380.877, 507.930 387, 512.674 387 C 515.186 387, 518 384.002, 518 381.326 C 518 376.892, 511.743 374.400, 508.571 377.571 M 385.265 480.542 C 379.403 482.120, 372.062 485.667, 367.404 489.171 C 361.642 493.506, 341 513.404, 341 514.625 C 341 516.254, 363.881 537.643, 370.111 541.838 C 385.257 552.035, 406.123 552.567, 422.043 543.161 C 429.156 538.958, 437.201 530.681, 443.763 520.814 L 448.313 513.971 444.406 508.270 C 442.258 505.135, 437.339 499.404, 433.476 495.535 C 419.433 481.471, 401.975 476.041, 385.265 480.542 M 499.500 480.890 C 491.510 483.217, 486.346 485.991, 480.140 491.288 C 474.329 496.248, 465.523 506.835, 463.258 511.585 C 461.783 514.677, 461.842 514.878, 466.053 521.122 C 472.781 531.097, 483.439 541.186, 491 544.737 C 511.423 554.328, 532.183 550.634, 548.525 534.500 C 554.715 528.389, 564 516.123, 564 514.057 C 564 511.998, 556.658 502.542, 549.542 495.438 C 541.071 486.981, 534.577 483.037, 524.869 480.453 C 517.728 478.552, 506.886 478.739, 499.500 480.890 M 618.217 480 C 611.129 481.501, 601.361 486.934, 594.579 493.149 C 588.070 499.113, 578 511.753, 578 513.959 C 578 515.908, 587.558 529.184, 592.742 534.436 C 602.709 544.534, 612.454 549.006, 626.130 549.759 C 633.185 550.147, 636.173 549.813, 642.510 547.932 C 653.240 544.747, 660.600 539.639, 673.804 526.212 L 685.145 514.680 674.823 504.247 C 663.064 492.362, 653.301 485.019, 645.133 481.917 C 638.772 479.500, 625.157 478.531, 618.217 480 M 257.185 508.684 C 256.462 508.973, 255.438 510.348, 254.909 511.740 C 252.682 517.597, 260.847 521.912, 264.443 516.777 C 266.501 513.840, 266.407 512.407, 264 510 C 262.048 508.048, 259.840 507.622, 257.185 508.684 M 760.571 509.571 C 757.265 512.878, 759.413 519, 763.880 519 C 769.165 519, 771.905 513.034, 768.171 509.655 C 765.867 507.569, 762.609 507.533, 760.571 509.571 M 327.491 526.750 C 331.308 566.393, 344.883 599.167, 369.897 629.133 C 399.271 664.321, 442.094 687.663, 489 694.053 C 501.082 695.699, 526.571 695.483, 538.664 693.633 C 581.315 687.108, 617.621 668.224, 647.068 637.247 C 673.528 609.412, 690.801 572.829, 695.968 533.678 C 697.982 518.412, 698.632 518.416, 683.781 533.611 C 676.461 541.102, 667.484 549.184, 663.662 551.725 C 656.266 556.641, 642.565 561.965, 637.250 561.987 L 634 562 634 581.500 C 634 599.937, 633.886 601.114, 631.913 603.087 C 630.381 604.619, 629.119 605.003, 627.163 604.532 C 622.292 603.359, 622 602.054, 622 581.485 L 622 562.353 615.750 561.202 C 612.313 560.569, 605.714 558.181, 601.086 555.896 C 591.563 551.193, 582.266 542.699, 575.116 532.171 L 570.854 525.894 566.074 532.697 C 555.471 547.790, 539.643 558.699, 524.613 561.273 L 518 562.406 518 593.584 L 518 624.763 521.585 627.497 C 526.716 631.411, 528.992 635.644, 528.996 641.282 C 529.004 651.055, 523.188 657.891, 514.123 658.762 C 503.989 659.736, 495.769 652.230, 495.769 642 C 495.769 636.302, 497.901 631.962, 502.506 628.288 L 506 625.500 506 593.880 L 506 562.260 500.025 561.085 C 484.773 558.084, 469.085 546.612, 457.795 530.203 L 454.784 525.826 452.776 529.163 C 442.594 546.087, 426.666 557.702, 408.642 561.345 L 402.500 562.587 402 582.376 C 401.542 600.488, 401.335 602.286, 399.559 603.583 C 396.882 605.537, 394.761 605.358, 392.189 602.961 C 390.083 601, 390 600.187, 390 581.661 L 390 562.400 384.250 561.206 C 377.682 559.842, 368.125 555.541, 361.224 550.846 C 358.626 549.077, 350.169 541.414, 342.430 533.815 C 334.692 526.217, 328.018 520, 327.600 520 C 327.183 520, 327.133 523.038, 327.491 526.750 M 509.223 637.557 C 504.999 640.515, 507.276 647.250, 512.500 647.250 C 517.601 647.250, 519.701 641.701, 516 638 C 513.593 635.593, 512.160 635.499, 509.223 637.557" stroke="none" fill="black" fill-rule="evenodd"/>
</svg>
