<svg xmlns="http://www.w3.org/2000/svg" width="100%" height="auto" viewBox="0 0 1024 1024" version="1.1">
	<path d="M 503.746 182.027 C 492.862 184.762, 481.563 194.038, 476.505 204.392 C 474.239 209.030, 473.533 212.057, 473.189 218.620 L 472.752 226.956 469.126 227.577 C 417.174 236.479, 373.236 255.552, 335.089 285.761 C 322.317 295.876, 299.256 318.994, 288.963 332 C 256.083 373.550, 236.146 419.368, 227.518 473.212 C 226.981 476.569, 226.569 476.982, 223.212 477.536 C 209.911 479.731, 200.102 485.680, 193.862 495.335 C 188.445 503.716, 186.665 510.407, 187.193 520.409 C 188.162 538.789, 201.293 553.704, 219.526 557.136 C 222.812 557.755, 225.982 558.382, 226.572 558.531 C 227.162 558.679, 228.222 562.108, 228.928 566.150 C 235.884 605.977, 255.588 651.662, 279.754 684 C 310.673 725.373, 353.972 759.705, 397.828 777.622 C 403.698 780.020, 409.902 781.986, 411.615 781.991 C 415.634 782.003, 419.554 778.882, 420.992 774.524 C 421.945 771.636, 421.819 770.380, 420.210 766.743 C 418.401 762.652, 417.760 762.187, 408.896 758.549 C 348.938 733.934, 300.011 687.560, 272.105 628.894 C 261.748 607.122, 254.266 584.120, 250.462 562.358 L 248.690 552.216 254.160 546.858 C 270.848 530.512, 270.842 505.401, 254.147 489.065 L 248.266 483.310 249.571 473.905 C 257.162 419.210, 284.406 365.174, 325.283 323.736 C 363.716 284.776, 410.657 260.260, 466.450 250.009 C 480.723 247.387, 481.596 247.438, 485.821 251.147 C 492.197 256.746, 501.358 260.325, 510.546 260.807 C 522.790 261.450, 531.962 258.362, 540.764 250.634 L 544.135 247.675 552.317 248.896 C 565.946 250.931, 582.785 254.956, 596.500 259.458 C 689.170 289.879, 760.143 374.376, 774.870 471.820 L 776.732 484.140 771.350 489.231 C 768.024 492.376, 764.732 496.831, 762.734 500.890 C 759.682 507.089, 759.500 508.077, 759.500 518.479 C 759.500 528.624, 759.731 529.972, 762.412 535.438 C 764.013 538.704, 767.694 543.824, 770.592 546.816 L 775.861 552.256 774.504 559.978 C 763.053 625.106, 727.801 683.453, 675 724.670 C 658.532 737.525, 633.698 751.704, 612.500 760.354 C 593.314 768.183, 565.442 775.768, 549.259 777.564 C 543.130 778.244, 542.939 778.191, 538.541 774.588 C 531.467 768.790, 523.721 765.711, 514.935 765.202 C 498.147 764.231, 484.346 772.450, 476.693 787.978 C 473.746 793.957, 473.500 795.227, 473.500 804.478 C 473.500 813.633, 473.769 815.062, 476.610 821 C 481.013 830.201, 486.749 836.236, 495.030 840.379 C 507.668 846.701, 521.265 846.228, 533.206 839.051 C 544.891 832.028, 551.429 821.062, 552.667 806.408 C 553.012 802.333, 553.430 799, 553.596 799 C 553.762 799, 558.759 798.077, 564.699 796.948 C 626.306 785.245, 685.577 752.166, 725.760 707.059 C 753.689 675.708, 774.380 639.547, 786.595 600.741 C 790.379 588.718, 794.405 572.510, 795.537 564.738 C 795.919 562.118, 796.625 559.731, 797.108 559.433 C 797.590 559.135, 800.801 558.442, 804.242 557.893 C 830.298 553.737, 845.187 528.283, 835.970 503.649 C 833.160 496.138, 824.579 486.826, 816.893 482.946 C 813.729 481.349, 808.017 479.526, 804.200 478.896 L 797.259 477.750 796.647 471.896 C 795.704 462.871, 791.334 442.808, 787.472 429.769 C 766.192 357.922, 716.312 296.194, 649.589 259.134 C 622.973 244.350, 590.036 233.004, 559.154 227.982 C 552.021 226.821, 551.822 226.712, 552.301 224.205 C 553.184 219.589, 551.173 209.793, 548.034 203.417 C 544.031 195.287, 535.161 186.969, 527.285 183.959 C 520.814 181.487, 509.570 180.564, 503.746 182.027 M 510.500 202.494 C 509.950 202.676, 508.297 203.089, 506.827 203.412 C 505.357 203.735, 502.750 205.181, 501.033 206.625 C 491.312 214.805, 491.838 229.894, 502.080 236.672 C 514.753 245.058, 531.286 236.456, 531.286 221.475 C 531.286 211.933, 524.599 204.230, 515 202.715 C 513.075 202.411, 511.050 202.312, 510.500 202.494 M 430.099 304.026 C 387.399 321.245, 352.248 350.109, 326.318 389.244 C 284.831 451.858, 275.906 531.130, 302.477 601 C 322.235 652.958, 363.142 698.027, 411.500 721.118 C 424.745 727.443, 429.746 728.762, 433.921 727.033 C 439.928 724.545, 442.031 715.467, 437.750 710.501 C 436.512 709.065, 431.675 706.184, 427 704.098 C 398.294 691.292, 369.398 667.997, 349.896 641.942 C 328.512 613.372, 314.741 578.593, 310.518 542.490 C 304.011 486.864, 320.152 430.433, 355.176 386.360 C 377.721 357.989, 406.386 337.139, 442.276 323.007 C 448.509 320.553, 453.673 317.877, 454.526 316.660 C 458.986 310.292, 453.618 298.987, 446.146 299.012 C 444.116 299.019, 437.004 301.241, 430.099 304.026 M 633.881 330.463 C 630.984 332.082, 627.997 337.515, 628.005 341.151 C 628.014 344.899, 630.922 348.446, 639.793 355.528 C 676.415 384.766, 701.759 424.389, 712.463 469.138 C 717.975 492.180, 719.654 524.739, 716.472 546.872 C 706.640 615.266, 664.367 672.581, 601.271 703.065 C 589.910 708.553, 587.484 711.085, 587.646 717.279 C 587.724 720.267, 588.498 721.960, 590.871 724.333 C 595.589 729.051, 599.120 728.577, 613.717 721.265 C 675.756 690.189, 719.683 634.338, 734.352 567.885 C 738.759 547.922, 739.439 541.379, 739.430 519 C 739.421 494.457, 737.873 481.368, 732.519 460.550 C 728.153 443.576, 725.157 435.343, 717.568 419.460 C 710.779 405.253, 702.016 390.728, 693.161 379.005 C 685.519 368.888, 661.503 344.846, 650.850 336.647 C 641.525 329.471, 637.973 328.176, 633.881 330.463 M 495.500 354.063 C 470.601 356.523, 444.792 365.776, 423.409 379.911 C 387.557 403.609, 363.536 440.072, 353.846 485.500 C 351.798 495.102, 351.505 499.169, 351.537 517.500 C 351.579 541.299, 352.831 550.248, 358.577 567.828 C 371.808 608.307, 400.518 641.960, 437.761 660.646 C 450.475 667.025, 456.967 668.378, 461.287 665.548 C 464.795 663.249, 466.263 658.692, 465.003 654.012 C 463.739 649.316, 462.022 647.832, 454 644.497 C 450.425 643.011, 443.900 639.618, 439.500 636.957 C 405.588 616.448, 382.314 582.654, 374.358 542.374 C 371.679 528.806, 371.918 503.793, 374.863 489.500 C 382.392 452.970, 400.130 424.531, 428.830 402.983 C 439.682 394.835, 456.272 385.953, 467.992 382.016 C 485.917 375.995, 510.687 373.590, 530.751 375.923 C 541.738 377.200, 543.874 376.774, 547.228 372.633 C 549.188 370.213, 549.531 364.259, 547.915 360.712 C 546.038 356.593, 542.004 355.097, 529.871 354.024 C 517.079 352.891, 507.245 352.903, 495.500 354.063 M 582.304 375.956 C 575.038 380.386, 575.851 390.843, 583.776 394.886 C 585.891 395.964, 591.251 399.539, 595.688 402.828 C 624.892 424.482, 645.599 458.074, 651.482 493.342 C 653.576 505.891, 653.593 529.391, 651.518 541.259 C 648.290 559.719, 639.734 580.593, 628.677 596.979 C 622.079 606.758, 607.715 621.562, 597 629.628 C 592.325 633.147, 582.945 638.832, 576.156 642.263 C 562.872 648.976, 561 650.861, 561 657.527 C 561 660.202, 561.767 661.921, 563.923 664.077 C 569.576 669.730, 577.983 667.447, 598.695 654.635 C 637.553 630.598, 664.272 591.525, 672.641 546.500 C 675.211 532.675, 675.243 501.545, 672.702 488 C 668.772 467.052, 659.287 444.064, 646.853 425.349 C 636.972 410.477, 617.543 391.041, 602.697 381.178 C 590.863 373.316, 587.885 372.553, 582.304 375.956 M 497.450 423.393 C 485.892 425.605, 478.999 427.927, 469.573 432.785 C 444.596 445.657, 427.646 467.031, 420.246 494.989 C 416.770 508.122, 416.589 527.360, 419.820 540.377 C 428.495 575.331, 454.631 601.662, 490.068 611.150 C 502.041 614.355, 522.697 614.379, 535.377 611.202 C 569.991 602.528, 595.435 577.015, 605.214 541.175 C 606.865 535.125, 607.325 530.429, 607.385 519 C 607.469 503.157, 605.613 493.291, 600.153 480.556 C 588.168 452.601, 563.273 431.498, 534 424.480 C 524.855 422.287, 506.136 421.730, 497.450 423.393 M 498 445.535 C 483.643 448.576, 471.550 455.243, 460.867 466.007 C 452.210 474.731, 446.367 484.346, 442.337 496.500 C 440.042 503.421, 439.673 506.253, 439.599 517.500 C 439.499 532.829, 440.900 538.771, 447.850 552.500 C 454.224 565.090, 466.798 577.723, 479 583.797 C 522.588 605.492, 572.129 582.507, 584.116 535.025 C 585.900 527.962, 586.173 524.630, 585.760 515.025 C 584.887 494.739, 578.195 479.953, 563.099 464.959 C 556 457.909, 552.842 455.606, 545 451.761 C 529.942 444.379, 513.652 442.221, 498 445.535 M 218.425 501.019 C 208.149 506.106, 205.112 519.333, 212.029 528.882 C 219.232 538.825, 231.954 539.327, 240.380 530.001 C 253.744 515.209, 236.293 492.174, 218.425 501.019 M 789.748 502.069 C 784.709 504.729, 780.820 510.813, 780.230 516.959 C 778.872 531.094, 794.171 541.547, 806.790 535.106 C 811.373 532.767, 813.477 530.496, 815.462 525.746 C 818.174 519.255, 816.796 510.749, 812.212 505.680 C 807.150 500.083, 796.694 498.402, 789.748 502.069 M 505.481 787.394 C 501.517 789.121, 496.518 794.900, 494.994 799.517 C 491.202 811.007, 500.638 823.249, 513.211 823.152 C 529.469 823.026, 537.662 802.344, 525.831 791.298 C 520.577 786.391, 511.693 784.687, 505.481 787.394" stroke="none" fill="black" fill-rule="evenodd"/>
</svg>
