<svg xmlns="http://www.w3.org/2000/svg" width="100%" height="auto" viewBox="0 0 1024 1024" version="1.1">
	<path d="M 495.500 140.593 C 462.025 143.994, 445.565 147.614, 417.500 157.749 C 405.305 162.153, 378.559 175.604, 367 183.148 C 353.002 192.283, 340.239 202.661, 326.673 215.938 C 289.305 252.510, 265.602 294.726, 253.526 346.215 C 247.221 373.098, 247.620 360.573, 247.266 542.750 L 246.944 709 221.972 709 L 197 709 197 638.617 L 197 568.235 202.561 565.514 C 210.845 561.461, 218.331 553.609, 222.765 544.322 C 226.363 536.788, 226.498 536.113, 226.447 526 C 226.404 517.576, 225.957 514.412, 224.183 510 C 214.487 485.884, 185.736 474.987, 162.543 486.636 C 146.144 494.872, 137.136 510.516, 138.201 528.909 C 138.586 535.568, 139.286 538.195, 142.301 544.295 C 146.815 553.429, 154.188 560.983, 162.658 565.152 L 169 568.275 169 675.637 L 169 783 183 783 L 197 783 197 760 L 197 737 236 737 L 275 737 275.016 567.250 C 275.025 464.583, 275.421 392.758, 276.018 385.500 C 279.700 340.706, 295.192 300.301, 323.371 262 C 333.790 247.838, 357.909 224.315, 372.857 213.737 C 405.964 190.309, 440.046 176.653, 479.796 170.890 C 499.383 168.050, 532.758 168.551, 552 171.974 C 591.574 179.013, 628.262 195.496, 660.253 220.609 C 670.151 228.379, 692.242 250.753, 699.638 260.500 C 724.357 293.074, 738.594 326.054, 745.612 367 C 747.285 376.757, 747.451 390.199, 747.956 557 L 748.500 736.500 787.250 736.762 L 826 737.023 826 760.039 L 826 783.055 840.250 782.777 C 852.074 782.547, 854.516 782.245, 854.598 781 C 854.651 780.175, 854.764 731.974, 854.848 673.887 L 855 568.275 861.530 565.060 C 876.253 557.812, 886.001 542.229, 885.964 526 C 885.925 509.006, 876.509 494.315, 860.624 486.464 C 854.126 483.252, 851.913 482.687, 844.096 482.241 C 832.448 481.577, 823.426 484.239, 814.625 490.936 C 804.254 498.829, 798.173 510.066, 797.274 523 C 796.073 540.270, 804.217 555.524, 819.368 564.385 L 826 568.264 826 638.632 L 826 709 801.528 709 L 777.057 709 776.733 544.250 C 776.379 364.019, 776.790 376.971, 770.476 347 C 762.625 309.738, 746.088 274.272, 721.982 243 C 712.566 230.784, 688.204 206.424, 676 197.021 C 638.575 168.186, 595.312 149.620, 550.180 143.026 C 536.805 141.072, 504.802 139.648, 495.500 140.593 M 486.907 220.515 C 446.944 225.970, 410.695 243.670, 382.490 271.500 C 357.606 296.054, 341.398 324.109, 332.924 357.298 C 327.949 376.782, 328.042 372.379, 328.002 592 L 327.966 797.500 322.302 799.953 C 314.452 803.354, 304.821 812.588, 300.975 820.400 C 289.952 842.790, 298.991 868.473, 321.873 879.782 C 329.201 883.403, 329.684 883.499, 340.448 883.472 C 349.489 883.448, 352.501 883.040, 357 881.229 C 368.115 876.754, 377.888 866.953, 382.159 856 C 385.361 847.785, 385.778 834.305, 383.068 826.581 C 379.023 815.050, 372.239 806.974, 361.518 800.923 L 356 797.809 356.016 598.655 C 356.026 475.600, 356.411 394.916, 357.025 387.505 C 363.335 311.327, 426.864 250.967, 504.608 247.283 C 550.191 245.123, 593.613 262.670, 625.389 296.089 C 645.141 316.862, 657.771 340.339, 664.345 368.500 C 666.440 377.471, 666.447 378.175, 666.741 587.644 L 667.036 797.789 661.389 800.976 C 647.071 809.056, 638 824.557, 638 840.944 C 638 851.690, 645.546 867.304, 653.959 873.968 C 656.075 875.643, 660.887 878.473, 664.653 880.257 C 671.097 883.309, 672.148 883.499, 682.500 883.479 C 695.161 883.455, 701.007 881.668, 709.476 875.233 C 726.480 862.313, 731.879 838.771, 722.247 819.554 C 718.716 812.511, 709.677 803.856, 702.231 800.391 L 696.021 797.500 696.010 595 C 696.002 462.832, 695.638 388.698, 694.960 381.553 C 687.935 307.467, 631.685 243.052, 557.877 224.571 C 536.280 219.164, 508.459 217.574, 486.907 220.515 M 490.826 301.912 C 449.073 310.999, 418.614 342.077, 411.468 382.881 C 410.207 390.082, 410 422.794, 410 615.131 L 410 839 423 839 C 430.150 839, 436.337 839.112, 436.750 839.250 C 437.163 839.388, 437.735 738.025, 438.023 614 C 438.516 401.262, 438.647 388.169, 440.331 382.647 C 447.635 358.699, 462.752 341.994, 485.176 333.091 C 522.178 318.399, 566.605 337.741, 580.610 374.639 C 586.161 389.264, 585.927 378.651, 585.965 617.696 L 586 838.892 599.629 839.196 C 608.214 839.387, 613.402 839.124, 613.646 838.484 C 613.860 837.926, 613.906 735.551, 613.749 610.984 L 613.465 384.500 611.203 376 C 608.431 365.580, 600.732 349.503, 594.625 341.378 C 580.617 322.743, 560.102 308.974, 537.175 302.820 C 525.918 299.798, 502.634 299.341, 490.826 301.912 M 175 512.098 C 169.090 515.562, 167.500 518.577, 167.500 526.322 C 167.500 533.031, 167.569 533.207, 171.641 537.006 C 176.514 541.551, 181.603 542.890, 186.913 541.022 C 193.925 538.556, 198 532.956, 198 525.784 C 198 513.814, 185.133 506.158, 175 512.098 M 833.922 512.274 C 832.066 513.524, 829.485 516.112, 828.185 518.024 C 826.210 520.930, 825.889 522.444, 826.226 527.261 C 826.570 532.183, 827.126 533.534, 830.036 536.537 C 843.178 550.097, 864.078 534.366, 854.816 517.886 C 850.730 510.616, 840.470 507.861, 833.922 512.274 M 334.450 825.407 C 327.505 828.432, 323.690 836.683, 325.870 843.961 C 328.989 854.370, 338.702 858.743, 348.079 853.960 C 353.550 851.168, 355.992 846.858, 355.996 839.982 C 356.004 828.141, 345.103 820.767, 334.450 825.407 M 674.990 826.250 C 669.312 830.115, 667.500 833.440, 667.500 840 C 667.500 844.352, 668.029 846.562, 669.562 848.615 C 674.855 855.705, 682.586 857.782, 689.863 854.070 C 695.569 851.159, 697.992 846.938, 697.996 839.898 C 697.999 835.727, 697.425 833.453, 695.750 830.999 C 691.071 824.144, 681.351 821.921, 674.990 826.250" stroke="none" fill="black" fill-rule="evenodd"/>
</svg>
