<svg xmlns="http://www.w3.org/2000/svg" width="100%" height="auto" viewBox="0 0 1024 1024" version="1.1">
	<path d="M 509.494 225.618 C 508.590 227.753, 505.360 235.575, 502.317 243 C 499.273 250.425, 486.201 281.925, 473.266 313 C 420.306 440.240, 416.998 448.614, 415.812 458.429 C 413.836 474.786, 417.270 492.870, 425.320 508.500 C 431.351 520.212, 444.502 533.225, 455.716 538.578 L 463.932 542.500 463.966 562.059 C 463.991 576.246, 463.657 582.049, 462.750 583.187 C 462.063 584.051, 445.975 596.576, 427 611.022 C 408.025 625.468, 391.943 637.724, 391.261 638.257 C 390.437 638.902, 388.675 638.687, 385.991 637.613 C 373.987 632.810, 359.837 639.417, 355.371 651.910 C 349.254 669.023, 365.401 686.692, 382.975 682.116 C 393.321 679.422, 401 669.958, 401 659.900 C 401 654.163, 395.720 658.760, 447.676 619.265 L 482.886 592.500 482.943 562.250 C 482.997 533.372, 482.915 532, 481.134 532 C 480.108 532, 475.996 530.363, 471.996 528.362 C 461.901 523.311, 450.891 512.215, 445.325 501.482 C 438.427 488.179, 436.506 480.467, 436.612 466.500 C 436.699 455.012, 436.854 454.159, 440.257 446.500 C 442.212 442.100, 449.763 424.100, 457.037 406.500 C 483.611 342.202, 508.158 283, 510.242 278.182 L 511.677 274.864 513.929 280.182 C 515.168 283.107, 520.137 295.175, 524.972 307 C 529.806 318.825, 540.060 343.575, 547.758 362 C 555.456 380.425, 566.366 406.750, 572.004 420.500 C 577.641 434.250, 582.845 446.664, 583.568 448.086 C 584.290 449.509, 585.390 454.494, 586.012 459.165 C 587.975 473.917, 584.027 492.059, 575.923 505.516 C 568.634 517.622, 553.324 529.535, 542.430 531.579 L 539 532.223 539 562.493 L 539 592.764 581.250 623.582 L 623.500 654.401 623.630 660.018 C 623.967 674.616, 637.440 685.127, 651.750 681.956 C 669.990 677.913, 676.383 655.119, 662.872 642.301 C 656.476 636.232, 646.234 634.204, 638.438 637.461 L 634.940 638.923 619.720 627.657 C 611.349 621.461, 594.038 608.805, 581.250 599.533 L 558 582.675 558 562.520 L 558 542.365 563.352 540.678 C 574.978 537.013, 589.267 524.511, 596.370 511.789 C 608.154 490.680, 611.053 461.190, 603.181 442.500 C 601.559 438.650, 594.733 422, 588.012 405.500 C 581.291 389, 570.252 362.225, 563.480 346 C 556.709 329.775, 542.546 295.575, 532.007 270 C 521.469 244.425, 512.462 223.103, 511.992 222.618 C 511.509 222.121, 510.421 223.428, 509.494 225.618 M 395.500 232.378 C 330.950 259.711, 281.067 303.985, 247.204 364 C 209.244 431.278, 198.431 511.209, 217.106 586.500 C 233.734 653.541, 272.865 711.948, 329.738 754.616 C 348.776 768.899, 377.138 784.534, 398.336 792.432 L 408.172 796.097 419.586 789.824 C 425.864 786.373, 431 783.264, 431 782.914 C 431 782.564, 425.938 780.584, 419.750 778.512 C 367.308 760.958, 323.250 729.806, 287.501 685.001 C 241.345 627.153, 220.644 548.525, 231.411 471.953 C 242.470 393.305, 288.395 321.244, 355.665 276.986 C 376.493 263.282, 410.378 246.955, 426.322 242.940 C 428.914 242.288, 431.224 241.446, 431.457 241.069 C 432.043 240.121, 409.454 227.983, 407.270 228.072 C 406.296 228.111, 401 230.049, 395.500 232.378 M 604.724 233.850 C 598.797 237.041, 593.497 240.103, 592.945 240.655 C 592.276 241.324, 595.233 242.735, 601.862 244.906 C 652.352 261.442, 698.969 293.638, 732.338 335.020 C 749.457 356.249, 769.200 391.042, 778.495 416.360 C 790.468 448.974, 795.791 482.956, 794.649 519.500 C 792.924 574.722, 777.759 622.602, 747.412 668.645 C 729.559 695.731, 703.487 722.560, 676.492 741.623 C 653.551 757.823, 626.954 771.157, 600.750 779.595 C 595.938 781.144, 592 782.668, 592 782.981 C 592 783.294, 597.235 786.389, 603.633 789.858 L 615.265 796.165 622.883 793.527 C 627.072 792.076, 638.644 786.882, 648.597 781.985 C 718.563 747.563, 771.513 687.955, 797.820 614 C 809.850 580.181, 815.268 548.498, 815.262 512 C 815.257 487.564, 814.166 475.835, 809.923 454.597 C 801.786 413.880, 787.324 378.805, 764.526 344.500 C 735.843 301.340, 696.119 266.035, 650.092 242.797 C 639.386 237.392, 617.392 227.910, 615.825 228.024 C 615.646 228.037, 610.651 230.658, 604.724 233.850 M 503 443.592 C 494.669 447.195, 488.816 455.948, 488.740 464.919 C 488.679 472.009, 491.434 477.591, 497.491 482.655 L 502 486.424 502 631.560 L 502 776.696 498.020 778.491 C 492.708 780.886, 485.485 788.153, 482.193 794.414 C 479.870 798.832, 479.518 800.683, 479.514 808.500 C 479.509 819.110, 481.414 824.239, 488.018 831.404 C 500.069 844.477, 520.016 845.150, 533.382 832.934 C 541.288 825.708, 544.396 818.847, 544.449 808.500 C 544.484 801.721, 544.065 799.632, 541.701 794.810 C 538.533 788.348, 529.850 779.798, 524.484 777.858 L 521 776.598 521 631.459 L 521 486.319 524.438 483.873 C 536.444 475.331, 538.354 460.364, 528.821 449.534 C 522.722 442.605, 511.339 439.986, 503 443.592 M 506.949 462.635 C 506.187 464.638, 506.319 465.837, 507.496 467.635 C 510.147 471.680, 516 469.979, 516 465.165 C 516 461.638, 514.343 460, 510.775 460 C 508.644 460, 507.705 460.647, 506.949 462.635 M 644.115 655.632 C 641.212 657.665, 641.401 661.561, 644.500 663.592 C 646.816 665.109, 647.184 665.109, 649.500 663.592 C 652.230 661.803, 652.701 659.253, 650.750 656.831 C 648.821 654.437, 646.437 654.006, 644.115 655.632 M 373.571 656.571 C 370.571 659.572, 372.725 665, 376.916 665 C 379.022 665, 382 661.969, 382 659.826 C 382 657.902, 378.839 655, 376.743 655 C 375.863 655, 374.436 655.707, 373.571 656.571 M 506.023 795.228 C 492.121 802.283, 496.696 823.014, 512.151 822.996 C 522.698 822.984, 529.690 809.718, 523.750 800.990 C 518.800 793.716, 512.827 791.775, 506.023 795.228" stroke="none" fill="black" fill-rule="evenodd"/>
</svg>
