<svg xmlns="http://www.w3.org/2000/svg" width="100%" height="auto" viewBox="0 0 1024 1024" version="1.1">
	<path d="M 484 141.582 C 482.075 141.794, 475.775 142.468, 470 143.081 C 358.085 154.954, 254.606 221.699, 194.935 320.500 C 166.292 367.926, 149.269 418.545, 142.809 475.500 C 140.932 492.045, 141.255 537.181, 143.381 555.500 C 151.223 623.059, 176.684 686.049, 217.353 738.500 C 297.248 841.543, 422.546 894.427, 553.500 880.377 C 622.261 872.999, 685.176 847.377, 741.500 803.816 C 756.763 792.012, 788.557 760.356, 801.679 743.899 C 847.599 686.308, 874.100 619.491, 881.083 543.700 C 882.618 527.046, 881.748 481.789, 879.574 465.205 C 868.786 382.886, 832.308 308.636, 773.888 250.084 C 715.267 191.331, 640.213 154.294, 557.708 143.404 C 546.230 141.889, 493.146 140.577, 484 141.582 M 489.500 156.104 C 414.302 160.810, 342.569 189.632, 283.500 238.876 C 269.567 250.491, 246.435 274.155, 235.129 288.359 C 188.958 346.365, 162.413 412.893, 156.930 484.347 C 154.586 514.891, 156.660 554.195, 162.083 582 C 179.481 671.200, 231.696 751.372, 306.244 803.347 C 335.169 823.514, 372.631 842.067, 403.292 851.411 C 425.262 858.106, 455.370 864.430, 471.250 865.684 L 479 866.296 479 752.761 L 479 639.225 437.250 597.591 L 395.500 555.957 378.097 556.228 L 360.693 556.500 358.097 561.311 C 352.659 571.385, 343.831 577.526, 333.185 578.638 C 317.627 580.265, 303.495 569.460, 299.835 553.141 C 296.715 539.230, 305.689 523.267, 319.559 518.054 C 334.310 512.509, 350.382 518.934, 358.085 533.455 L 360.497 538 379.998 538.015 C 390.724 538.024, 400.175 538.448, 401 538.958 C 401.825 539.469, 419.729 557.124, 440.788 578.193 L 479.075 616.500 478.764 583.500 C 478.419 546.820, 478.273 545.885, 470.961 533.373 C 465.929 524.763, 371.673 430.515, 364.150 426.571 C 354.100 421.302, 351.471 421.020, 313 421.073 L 277.500 421.122 274.472 425.311 C 260.733 444.319, 231.900 441.365, 220.910 419.824 C 213.663 405.619, 220.327 386.707, 235.266 379.087 C 241.172 376.074, 242.839 375.680, 249.484 375.722 C 255.544 375.762, 258.074 376.291, 262.458 378.436 C 269.989 382.120, 276.299 389.381, 278.576 396.982 L 280.379 403 319.008 403 C 350.976 403, 358.574 403.268, 363.068 404.557 C 368.323 406.062, 370.210 407.829, 421.025 458.807 C 449.914 487.788, 475.832 514.572, 478.621 518.328 C 487.416 530.168, 492.081 541.159, 493.918 554.366 C 494.655 559.667, 495 610.861, 495 715.072 L 495 868 500.389 868 C 505.683 868, 505.788 867.943, 506.357 864.750 C 507.410 858.852, 506.199 551.834, 505.104 547 C 500.549 526.894, 494.195 517.331, 465.262 487.039 C 454.682 475.962, 444.782 464.784, 443.262 462.199 L 440.500 457.500 440.211 413.952 L 439.922 370.405 418.067 348.567 L 396.213 326.730 392.957 327.865 C 387.919 329.622, 378.698 329.233, 372.767 327.014 C 369.212 325.684, 365.768 323.290, 362.336 319.764 C 355.165 312.396, 353.715 309.084, 353.203 298.904 C 352.686 288.630, 354.400 283.776, 361.121 276.485 C 372.131 264.540, 389.259 262.665, 402.215 271.985 C 414.878 281.094, 419.085 298.631, 411.910 312.396 L 409.855 316.340 433.428 339.927 L 457 363.515 457.020 404.508 C 457.031 427.053, 457.461 448.410, 457.975 451.966 C 459.690 463.834, 463.980 470.477, 482.448 489.861 C 499.295 507.544, 505.309 515.390, 509.191 524.750 C 510.388 527.638, 511.652 530, 512 530 C 512.348 530, 513.648 527.548, 514.891 524.550 C 518.106 516.794, 525.229 507.113, 536.635 495 C 553.396 477.200, 557.015 472.903, 559.704 467.610 C 564.814 457.555, 564.977 455.725, 564.970 408.500 L 564.964 364.500 589.374 340.330 L 613.784 316.159 611.311 310.991 C 606.460 300.855, 607.538 288.892, 614.171 279.252 C 625.525 262.749, 649.631 261.550, 663.072 276.819 C 680.006 296.057, 667.757 326.725, 642.324 328.766 C 638.906 329.041, 633.978 328.728, 631.373 328.072 L 626.637 326.880 604.818 348.681 L 583 370.483 583 412.116 C 583 457.420, 582.908 458.281, 577.237 465.992 C 575.712 468.066, 566.225 478.433, 556.155 489.028 C 531.442 515.032, 526.973 521.353, 520.808 539.021 L 517.500 548.500 517.229 708.250 L 516.958 868 522.958 868 L 528.958 868 529.229 708.750 L 529.500 549.500 531.845 543.033 C 535.193 533.800, 539.075 526.465, 544.563 519 C 552.036 508.834, 653.658 407.407, 658.500 405.281 C 662.027 403.732, 667.276 403.464, 702.896 403.012 L 743.293 402.500 744.734 397.552 C 748.622 384.209, 759.681 375.875, 773.616 375.788 C 791.036 375.679, 803.755 387.608, 804.762 405 C 805.343 415.044, 802.715 422.190, 795.952 428.952 C 782.441 442.464, 758.827 440.426, 748.525 424.859 L 745.972 421 710.736 421.012 C 673.610 421.024, 670.054 421.371, 660.756 425.880 C 657.820 427.304, 640.640 443.844, 605.352 479.222 C 561.026 523.661, 553.789 531.333, 551.091 536.743 C 545.403 548.150, 545 551.365, 545 585.306 L 545 616.191 583.750 577.063 L 622.500 537.935 643.129 537.967 L 663.757 538 665.055 534.866 C 667.349 529.329, 673.505 522.583, 679.078 519.500 C 683.975 516.791, 685.372 516.500, 693.500 516.500 C 701.608 516.500, 703.031 516.794, 707.859 519.468 C 721.186 526.850, 727.590 541.580, 723.535 555.528 C 720.199 567.005, 712.707 574.405, 701.181 577.609 C 694.130 579.570, 687.022 578.650, 679.256 574.771 C 673.857 572.074, 666.570 564.258, 664.989 559.465 L 663.845 556 646.200 556 L 628.555 556 586.778 597.734 L 545 639.468 545 753.065 L 545 866.663 556.250 865.327 C 651.476 854.023, 738.722 803.485, 797.685 725.471 C 870.528 629.093, 888.240 495.480, 843.281 381.500 C 825.226 335.727, 799.229 296.184, 764.031 260.957 C 712.856 209.740, 651.389 176.586, 580.610 162.023 C 566.812 159.184, 549.643 157.125, 530.500 156.014 C 511.654 154.921, 508.281 154.928, 489.500 156.104 M 377.637 279.465 C 365.987 283.618, 361.220 297.648, 367.887 308.160 C 374.876 319.181, 391.580 320.030, 399.350 309.759 C 407.642 298.798, 403.059 283.641, 390.101 279.172 C 385.745 277.670, 382.455 277.747, 377.637 279.465 M 633.791 278.988 C 626.920 281.060, 620.036 290.107, 620.010 297.101 C 619.983 304.125, 625.116 312.240, 631.384 315.087 C 641.663 319.755, 652.348 315.772, 657.104 305.500 C 664.062 290.471, 649.738 274.181, 633.791 278.988 M 244 388.153 C 233.166 391.300, 227.116 403.854, 231.443 414.210 C 232.237 416.111, 234.686 419.290, 236.884 421.276 C 250.712 433.769, 272.879 420.120, 268.027 402.099 C 266.797 397.533, 262.114 391.619, 258.102 389.567 C 254.297 387.621, 248.004 386.990, 244 388.153 M 768.585 388.197 C 763.305 389.653, 756.336 396.691, 755.439 401.474 C 754.366 407.193, 755.520 413.676, 758.380 417.999 C 765.373 428.565, 781.756 428.742, 789.692 418.337 C 792.210 415.036, 792.500 413.857, 792.500 406.921 C 792.500 399.787, 792.263 398.893, 789.447 395.413 C 784.068 388.768, 776.283 386.075, 768.585 388.197 M 322.500 529.890 C 308.598 536.306, 307.144 554.671, 319.840 563.487 C 323.549 566.062, 325.090 566.498, 330.438 566.483 C 337.558 566.464, 342 564.133, 345.976 558.329 C 356.820 542.504, 339.812 521.900, 322.500 529.890 M 687.145 529.070 C 679.363 532.187, 674.990 538.727, 675.016 547.210 C 675.037 553.871, 677.983 559.339, 683.726 563.375 C 687.269 565.865, 688.896 566.333, 694 566.333 C 699.080 566.333, 700.750 565.858, 704.282 563.403 C 709.328 559.898, 713.009 553.183, 712.978 547.538 C 712.937 540.027, 707.307 531.566, 700.685 529.064 C 697.276 527.776, 690.368 527.779, 687.145 529.070" stroke="none" fill="black" fill-rule="evenodd"/>
</svg>
