<svg viewBox="0 0 48 48" width="48" height="48" fill="none" xmlns="http://www.w3.org/2000/svg">
  <!-- 17 — The Star -->
  <line x1="24" y1="24" x2="24.00" y2="6.00" stroke="black" stroke-width="1.5"/>
  <line x1="24" y1="24" x2="36.73" y2="11.27" stroke="black" stroke-width="1.5"/>
  <line x1="24" y1="24" x2="42.00" y2="24.00" stroke="black" stroke-width="1.5"/>
  <line x1="24" y1="24" x2="36.73" y2="36.73" stroke="black" stroke-width="1.5"/>
  <line x1="24" y1="24" x2="24.00" y2="42.00" stroke="black" stroke-width="1.5"/>
  <line x1="24" y1="24" x2="11.27" y2="36.73" stroke="black" stroke-width="1.5"/>
  <line x1="24" y1="24" x2="6.00" y2="24.00" stroke="black" stroke-width="1.5"/>
  <line x1="24" y1="24" x2="11.27" y2="11.27" stroke="black" stroke-width="1.5"/>
  <circle cx="24" cy="24" r="4" fill="none" stroke="black" stroke-width="1.5"/>
  <circle cx="24.00" cy="6.00" r="1.8" fill="none" stroke="black" stroke-width="1"/>
  <circle cx="36.73" cy="11.27" r="1.8" fill="none" stroke="black" stroke-width="1"/>
  <circle cx="42.00" cy="24.00" r="1.8" fill="none" stroke="black" stroke-width="1"/>
  <circle cx="36.73" cy="36.73" r="1.8" fill="none" stroke="black" stroke-width="1"/>
  <circle cx="24.00" cy="42.00" r="1.8" fill="none" stroke="black" stroke-width="1"/>
  <circle cx="11.27" cy="36.73" r="1.8" fill="none" stroke="black" stroke-width="1"/>
  <circle cx="6.00" cy="24.00" r="1.8" fill="none" stroke="black" stroke-width="1"/>
  <circle cx="11.27" cy="11.27" r="1.8" fill="none" stroke="black" stroke-width="1"/>
</svg>